<svg width="32" height="32" viewBox="0 0 32 32" fill="none" xmlns="http://www.w3.org/2000/svg">
<path d="M20.7449 20.2649C21.4435 20.4978 22.1986 20.1202 22.4314 19.4216C22.6643 18.723 22.2867 17.968 21.5881 17.7351L20.7449 20.2649ZM16.6665 17.5H15.3332C15.3332 18.0739 15.7004 18.5834 16.2449 18.7649L16.6665 17.5ZM17.9998 11.2278C17.9998 10.4914 17.4029 9.89449 16.6665 9.89449C15.9301 9.89449 15.3332 10.4914 15.3332 11.2278H17.9998ZM21.5881 17.7351L17.0881 16.2351L16.2449 18.7649L20.7449 20.2649L21.5881 17.7351ZM17.9998 17.5V11.2278H15.3332V17.5H17.9998ZM27.3332 16C27.3332 21.891 22.5575 26.6667 16.6665 26.6667V29.3333C24.0303 29.3333 29.9998 23.3638 29.9998 16H27.3332ZM16.6665 26.6667C10.7755 26.6667 5.99984 21.891 5.99984 16H3.33317C3.33317 23.3638 9.30271 29.3333 16.6665 29.3333V26.6667ZM5.99984 16C5.99984 10.109 10.7755 5.33333 16.6665 5.33333V2.66667C9.30271 2.66667 3.33317 8.6362 3.33317 16H5.99984ZM16.6665 5.33333C22.5575 5.33333 27.3332 10.109 27.3332 16H29.9998C29.9998 8.6362 24.0303 2.66667 16.6665 2.66667V5.33333Z" fill="#5E5CCE"/>
</svg>
