<svg width="55" height="55" viewBox="0 0 55 55" fill="none" xmlns="http://www.w3.org/2000/svg">
<path d="M16.5 14.0255V16.3172C17.3151 16.3172 18.0688 15.8843 18.4795 15.1802L16.5 14.0255ZM20.35 7.42554V5.13387C19.5349 5.13387 18.7812 5.56679 18.3705 6.27083L20.35 7.42554ZM34.65 7.42554L36.6295 6.27083C36.2188 5.56679 35.4651 5.13387 34.65 5.13387V7.42554ZM38.5 14.0255L36.5205 15.1802C36.9312 15.8843 37.6849 16.3172 38.5 16.3172V14.0255ZM7.79167 42.0755V19.5255H3.20833V42.0755H7.79167ZM11 16.3172H16.5V11.7339H11V16.3172ZM18.4795 15.1802L22.3295 8.58024L18.3705 6.27083L14.5205 12.8708L18.4795 15.1802ZM20.35 9.7172H34.65V5.13387H20.35V9.7172ZM32.6705 8.58024L36.5205 15.1802L40.4795 12.8708L36.6295 6.27083L32.6705 8.58024ZM38.5 16.3172H44V11.7339H38.5V16.3172ZM47.2083 19.5255V42.0755H51.7917V19.5255H47.2083ZM47.2083 42.0755C47.2083 43.8475 45.7719 45.2839 44 45.2839V49.8672C48.3032 49.8672 51.7917 46.3788 51.7917 42.0755H47.2083ZM44 16.3172C45.7719 16.3172 47.2083 17.7536 47.2083 19.5255H51.7917C51.7917 15.2223 48.3032 11.7339 44 11.7339V16.3172ZM7.79167 19.5255C7.79167 17.7536 9.22808 16.3172 11 16.3172V11.7339C6.69678 11.7339 3.20833 15.2223 3.20833 19.5255H7.79167ZM11 45.2839C9.22809 45.2839 7.79167 43.8474 7.79167 42.0755H3.20833C3.20833 46.3788 6.69678 49.8672 11 49.8672V45.2839ZM33.4583 29.4255C33.4583 32.7162 30.7907 35.3839 27.5 35.3839V39.9672C33.322 39.9672 38.0417 35.2475 38.0417 29.4255H33.4583ZM27.5 35.3839C24.2093 35.3839 21.5417 32.7162 21.5417 29.4255H16.9583C16.9583 35.2475 21.678 39.9672 27.5 39.9672V35.3839ZM21.5417 29.4255C21.5417 26.1348 24.2093 23.4672 27.5 23.4672V18.8839C21.678 18.8839 16.9583 23.6035 16.9583 29.4255H21.5417ZM27.5 23.4672C30.7907 23.4672 33.4583 26.1348 33.4583 29.4255H38.0417C38.0417 23.6035 33.322 18.8839 27.5 18.8839V23.4672ZM44 45.2839H11V49.8672H44V45.2839Z" fill="#FFFCFC"/>
</svg>
