<svg width="165" height="50" viewBox="0 0 165 50" fill="none" xmlns="http://www.w3.org/2000/svg">
<path d="M71.0929 9.22147V42.6486C71.0929 44.2683 69.7662 45.6295 68.1121 45.6295H58.8938C57.2396 45.6295 55.9129 44.2683 55.9129 42.6486V18.8016C55.9129 18.009 54.9997 17.4749 54.2932 17.8884L43.6276 24.0397C43.3002 24.2464 43.0934 24.5738 43.0934 24.9874V42.6314C43.0934 44.251 41.7667 45.5605 40.1125 45.5605H30.8942C29.2401 45.5605 27.9134 44.2338 27.9134 42.6314V19.5425C27.9134 18.7499 27.0518 18.2158 26.3454 18.6293L15.5247 24.8667C15.2317 25.0735 15.025 25.4009 15.025 25.78L15.1111 42.6486C15.1111 44.2683 13.7844 45.5778 12.1819 45.5778H2.92918C1.30952 45.5778 0 44.251 0 42.6486V27.0722C0 25.8316 0.74091 24.7978 1.86089 24.3498C1.94704 24.2637 2.0332 24.1431 2.15381 24.0569L21.0384 13.4257L21.1246 13.3912L21.2452 13.3568C21.2796 13.3223 21.3658 13.2706 21.4175 13.2362C21.831 12.9949 22.3307 12.5814 22.279 12.1162C22.2445 11.6682 21.6242 11.4959 21.0384 11.4614C21.0039 11.4614 20.9178 11.427 20.8661 11.4614C20.5732 11.427 20.332 11.427 20.1597 11.4614H19.9184L18.8501 11.4959H2.92918C1.30952 11.4959 0 10.1691 0 8.51502V7.98087C0 6.32675 1.32675 5 2.92918 5H40.1298C41.7839 5 43.1106 6.32675 43.1106 7.98087V14.5974C43.1106 15.2177 43.7654 15.5967 44.2651 15.3038L55.9129 8.60117L61.3749 5.41353C61.754 5.20677 62.1159 5.03446 62.4949 5H66.8715C69.1804 5 71.0929 6.89535 71.0929 9.22147Z" fill="#5E5CCE"/>
<path d="M85.0664 33.1027C84.0671 33.1027 83.5674 32.5857 83.5674 31.5519V22.437C83.5674 21.4204 84.0498 20.9207 85.032 20.9207C86.0141 20.9207 86.4966 21.4204 86.4966 22.437V22.9194C86.8584 22.2819 87.3409 21.7822 87.9612 21.4204C88.5815 21.0586 89.3051 20.8862 90.1322 20.8862C91.9069 20.8862 93.0614 21.6616 93.6127 23.1951C93.9746 22.4715 94.5087 21.9028 95.198 21.4893C95.8872 21.0758 96.6798 20.869 97.5585 20.869C100.212 20.869 101.539 22.4887 101.539 25.7108V31.5691C101.539 32.603 101.039 33.1199 100.022 33.1199C99.0059 33.1199 98.5234 32.603 98.5234 31.5691V25.8486C98.5234 24.9526 98.3684 24.2979 98.0754 23.8671C97.7825 23.4536 97.2828 23.2468 96.5764 23.2468C95.7838 23.2468 95.1635 23.5225 94.7155 24.0739C94.2675 24.6253 94.0435 25.4006 94.0435 26.3828V31.5691C94.0435 32.603 93.5438 33.1199 92.5445 33.1199C91.5451 33.1199 91.0282 32.603 91.0282 31.5691V25.8486C91.0282 24.9526 90.8731 24.2979 90.5802 23.8671C90.2873 23.4536 89.7876 23.2468 89.0984 23.2468C88.3058 23.2468 87.6855 23.5225 87.2375 24.0739C86.7895 24.6253 86.5655 25.4006 86.5655 26.3828V31.5691C86.5827 32.5857 86.0658 33.1027 85.0664 33.1027Z" fill="#5E5CCE"/>
<path d="M110.482 33.1546C109.156 33.1546 108.001 32.9133 107.036 32.4136C106.071 31.914 105.33 31.2075 104.813 30.2943C104.297 29.3811 104.038 28.2956 104.038 27.0377C104.038 25.7799 104.297 24.7461 104.796 23.8329C105.296 22.9197 106.002 22.196 106.898 21.6791C107.794 21.1621 108.811 20.9037 109.948 20.9037C111.619 20.9037 112.946 21.4378 113.911 22.4889C114.876 23.5572 115.376 25.0045 115.376 26.831C115.376 27.434 114.997 27.727 114.221 27.727H106.933C107.157 29.8291 108.363 30.8801 110.551 30.8801C110.965 30.8801 111.447 30.8284 111.964 30.7251C112.481 30.6217 112.981 30.4321 113.446 30.1909C113.859 29.9497 114.221 29.8808 114.514 29.9669C114.807 30.0531 115.014 30.2254 115.135 30.4838C115.255 30.7423 115.272 31.018 115.186 31.3454C115.1 31.6555 114.876 31.9312 114.497 32.1552C113.928 32.517 113.291 32.7755 112.55 32.9306C111.792 33.0684 111.103 33.1546 110.482 33.1546ZM110.052 22.9197C109.173 22.9197 108.449 23.1953 107.898 23.7467C107.346 24.2981 107.019 25.039 106.916 25.9694H112.843C112.774 24.9873 112.515 24.2292 112.033 23.7123C111.568 23.1953 110.896 22.9197 110.052 22.9197Z" fill="#5E5CCE"/>
<path d="M122.318 33.1027C121.508 33.1027 120.923 32.6719 120.526 31.8276L116.684 22.9367C116.46 22.4026 116.46 21.9374 116.667 21.5411C116.891 21.1448 117.321 20.938 117.976 20.938C118.338 20.938 118.648 21.0241 118.872 21.1964C119.096 21.3688 119.303 21.6789 119.475 22.1441L122.37 29.3809L125.368 22.1269C125.54 21.6789 125.747 21.3688 125.988 21.1964C126.23 21.0241 126.54 20.938 126.936 20.938C127.453 20.938 127.815 21.1448 128.022 21.5411C128.228 21.9374 128.228 22.4026 128.004 22.9195L124.093 31.8449C123.748 32.6719 123.145 33.1027 122.318 33.1027Z" fill="#5E5CCE"/>
<path d="M135.827 33.1546C134.5 33.1546 133.346 32.9133 132.381 32.4136C131.416 31.914 130.675 31.2075 130.158 30.2943C129.641 29.3811 129.383 28.2956 129.383 27.0377C129.383 25.7799 129.641 24.7461 130.141 23.8329C130.641 22.9197 131.347 22.196 132.243 21.6791C133.139 21.1621 134.156 20.9037 135.293 20.9037C136.964 20.9037 138.291 21.4378 139.256 22.4889C140.221 23.5572 140.72 25.0045 140.72 26.831C140.72 27.434 140.341 27.727 139.566 27.727H132.278C132.502 29.8291 133.708 30.8801 135.896 30.8801C136.309 30.8801 136.792 30.8284 137.309 30.7251C137.826 30.6217 138.325 30.4321 138.791 30.1909C139.204 29.9497 139.566 29.8808 139.859 29.9669C140.152 30.0531 140.359 30.2254 140.479 30.4838C140.6 30.7423 140.617 31.018 140.531 31.3454C140.445 31.6555 140.221 31.9312 139.842 32.1552C139.273 32.517 138.636 32.7755 137.895 32.9306C137.137 33.0684 136.447 33.1546 135.827 33.1546ZM135.396 22.9197C134.517 22.9197 133.794 23.1953 133.242 23.7467C132.691 24.2981 132.364 25.039 132.26 25.9694H138.188C138.119 24.9873 137.86 24.2292 137.378 23.7123C136.895 23.1953 136.241 22.9197 135.396 22.9197Z" fill="#5E5CCE"/>
<path d="M144.581 33.1027C143.582 33.1027 143.082 32.5858 143.082 31.5519V22.437C143.082 21.4204 143.564 20.9207 144.547 20.9207C145.529 20.9207 146.011 21.4204 146.011 22.437V22.9367C146.408 22.2647 146.959 21.7478 147.631 21.386C148.32 21.0241 149.078 20.8518 149.94 20.8518C152.714 20.8518 154.11 22.4715 154.11 25.6936V31.5692C154.11 32.603 153.61 33.1199 152.61 33.1199C151.611 33.1199 151.094 32.603 151.094 31.5692V25.8831C151.094 24.9699 150.922 24.2979 150.577 23.8844C150.233 23.4708 149.699 23.2641 148.975 23.2641C148.096 23.2641 147.39 23.5398 146.873 24.0911C146.356 24.6425 146.097 25.3834 146.097 26.2966V31.5692C146.097 32.5858 145.598 33.1027 144.581 33.1027Z" fill="#5E5CCE"/>
<path d="M162.587 33.1544C159.468 33.1544 157.9 31.6037 157.9 28.5194V23.3847H156.643C155.833 23.3847 155.437 23.0057 155.437 22.2475C155.437 21.4894 155.833 21.1103 156.643 21.1103H157.9V18.922C157.9 17.9054 158.4 17.4058 159.417 17.4058C160.433 17.4058 160.916 17.9054 160.916 18.922V21.1103H163.466C164.276 21.1103 164.672 21.4894 164.672 22.2475C164.672 23.0057 164.276 23.3847 163.466 23.3847H160.916V28.3471C160.916 29.1225 161.088 29.6911 161.415 30.0874C161.76 30.4665 162.294 30.6732 163.052 30.6732C163.328 30.6732 163.569 30.656 163.776 30.6043C163.983 30.5526 164.172 30.5182 164.327 30.5009C164.517 30.4837 164.689 30.5526 164.81 30.6732C164.931 30.8111 164.999 31.0868 164.999 31.5003C164.999 31.8277 164.948 32.1034 164.844 32.3618C164.741 32.603 164.551 32.7753 164.276 32.8787C164.069 32.9476 163.793 32.9993 163.449 33.051C163.139 33.12 162.846 33.1544 162.587 33.1544Z" fill="#5E5CCE"/>
</svg>
