<svg xmlns="http://www.w3.org/2000/svg">
  <symbol id="gallery-icon" fill="none">
    <path d="M8.16002 15.6L12 12L14.56 13.8L18.1867 10.2L21.3867 13.2M2.40002 8.99995V19.8H15.2M10.08 7.79995V7.70972M21.6 15.2V5.19995C21.6 4.64767 21.1523 4.19995 20.6 4.19995H7.24002C6.68774 4.19995 6.24002 4.64767 6.24002 5.19995V15.2C6.24002 15.7522 6.68774 16.2 7.24003 16.2H20.6C21.1523 16.2 21.6 15.7522 21.6 15.2Z" stroke="#999999" stroke-width="2" stroke-linecap="round" stroke-linejoin="round"/>
  </symbol>
  <symbol id="next-arrow">
    <path d="M20.05 11.47L13.05 4.47C12.8571 4.28243 12.5787 4.21204 12.3198 4.28533C12.0609 4.35863 11.8608 4.56447 11.7948 4.82533C11.7289 5.08619 11.8071 5.36243 12 5.55L17.71 11.25H4.47998C4.06577 11.25 3.72998 11.5858 3.72998 12C3.72998 12.4142 4.06577 12.75 4.47998 12.75H17.7L12 18.45C11.857 18.5893 11.7764 18.7804 11.7764 18.98C11.7764 19.1796 11.857 19.3707 12 19.51C12.1378 19.6546 12.3302 19.7345 12.53 19.73C12.729 19.7309 12.9201 19.6516 13.06 19.51L20.06 12.51C20.3524 12.2172 20.3524 11.7428 20.06 11.45L20.05 11.47Z" fill="white"/>
  </symbol>
  <symbol id="chevron-left-purple" fill="none">
    <path d="M15 17L10 12L15 7" stroke="#5E5CCE" stroke-width="2" stroke-linecap="round" stroke-linejoin="round"/>
  </symbol>
</svg>
